<svg xmlns="http://www.w3.org/2000/svg" xmlns:xlink="http://www.w3.org/1999/xlink" width="1048" zoomAndPan="magnify" viewBox="0 0 786 785.999994" height="1048" preserveAspectRatio="xMidYMid meet" version="1.0"><defs><g/><clipPath id="58d5a34984"><path d="M 400 331 L 560.460938 331 L 560.460938 391 L 400 391 Z M 400 331 " clip-rule="nonzero"/></clipPath><clipPath id="149c9e16e0"><path d="M 406 395 L 560.460938 395 L 560.460938 455 L 406 455 Z M 406 395 " clip-rule="nonzero"/></clipPath><clipPath id="9c0c6a0a1f"><path d="M 225.210938 331 L 393 331 L 393 391 L 225.210938 391 Z M 225.210938 331 " clip-rule="nonzero"/></clipPath><clipPath id="64ac9ab84c"><path d="M 225.210938 395 L 387 395 L 387 455 L 225.210938 455 Z M 225.210938 395 " clip-rule="nonzero"/></clipPath><clipPath id="867dd4567b"><path d="M 279 320.222656 L 314 320.222656 L 314 323 L 279 323 Z M 279 320.222656 " clip-rule="nonzero"/></clipPath><clipPath id="685472d11e"><path d="M 472 320.222656 L 508 320.222656 L 508 323 L 472 323 Z M 472 320.222656 " clip-rule="nonzero"/></clipPath><clipPath id="db0c2fd737"><path d="M 279 463 L 314 463 L 314 465.636719 L 279 465.636719 Z M 279 463 " clip-rule="nonzero"/></clipPath><clipPath id="b3d73a6256"><path d="M 472.417969 463 L 507.65625 463 L 507.65625 465.636719 L 472.417969 465.636719 Z M 472.417969 463 " clip-rule="nonzero"/></clipPath></defs><rect x="-78.6" width="943.2" fill="#ffffff" y="-78.599999" height="943.199992" fill-opacity="1"/><rect x="-78.6" width="943.2" fill="#ffffff" y="-78.599999" height="943.199992" fill-opacity="1"/><path fill="#0cc0df" d="M 457.742188 393.050781 C 457.742188 393.476562 458.089844 393.824219 458.515625 393.824219 C 458.945312 393.824219 459.289062 393.476562 459.289062 393.050781 C 459.289062 392.625 458.945312 392.277344 458.515625 392.277344 C 458.089844 392.277344 457.742188 392.625 457.742188 393.050781 " fill-opacity="1" fill-rule="nonzero"/><path fill="#0cc0df" d="M 326.34375 393.050781 C 326.34375 393.476562 326.691406 393.824219 327.117188 393.824219 C 327.546875 393.824219 327.890625 393.476562 327.890625 393.050781 C 327.890625 392.625 327.546875 392.277344 327.117188 392.277344 C 326.691406 392.277344 326.34375 392.625 326.34375 393.050781 " fill-opacity="1" fill-rule="nonzero"/><path fill="#0cc0df" d="M 395.71875 345.605469 C 396.144531 345.605469 396.492188 345.261719 396.492188 344.832031 C 396.492188 344.40625 396.144531 344.058594 395.71875 344.058594 C 395.292969 344.058594 394.945312 344.40625 394.945312 344.832031 C 394.945312 345.261719 395.292969 345.605469 395.71875 345.605469 " fill-opacity="1" fill-rule="nonzero"/><path fill="#0cc0df" d="M 395.71875 442.074219 C 396.144531 442.074219 396.492188 441.730469 396.492188 441.296875 C 396.492188 440.871094 396.144531 440.527344 395.71875 440.527344 C 395.292969 440.527344 394.945312 440.871094 394.945312 441.296875 C 394.945312 441.730469 395.292969 442.074219 395.71875 442.074219 " fill-opacity="1" fill-rule="nonzero"/><g clip-path="url(#58d5a34984)"><path fill="#0cc0df" d="M 559.976562 390.242188 L 560.789062 389.542969 L 549.351562 376.257812 L 545.042969 376.257812 L 536.738281 366.605469 L 528.808594 366.605469 L 498.828125 331.761719 L 474.769531 331.761719 L 472.492188 334.410156 L 410.933594 334.410156 L 406.0625 339.800781 L 400.441406 339.800781 L 400.441406 340.871094 L 406.539062 340.871094 L 411.410156 335.480469 L 472.984375 335.480469 L 475.257812 332.835938 L 498.339844 332.835938 L 528.316406 367.671875 L 536.246094 367.671875 L 544.550781 377.320312 L 548.863281 377.320312 L 559.976562 390.242188 " fill-opacity="1" fill-rule="nonzero"/></g><path fill="#0cc0df" d="M 515.3125 351.738281 L 510.707031 351.738281 L 496.535156 335.269531 L 484.851562 335.269531 L 482.347656 332.359375 L 498.585938 332.359375 L 515.3125 351.738281 " fill-opacity="1" fill-rule="nonzero"/><path fill="#0cc0df" d="M 528.992188 364.023438 L 511.390625 343.5625 L 515.3125 343.5625 L 532.832031 363.917969 L 528.992188 364.023438 " fill-opacity="1" fill-rule="nonzero"/><g clip-path="url(#149c9e16e0)"><path fill="#0cc0df" d="M 474.769531 454.3125 L 498.828125 454.3125 L 528.808594 419.46875 L 536.738281 419.46875 L 545.042969 409.816406 L 549.351562 409.816406 L 560.789062 396.53125 L 559.976562 395.832031 L 548.863281 408.75 L 544.550781 408.75 L 536.246094 418.402344 L 528.316406 418.402344 L 498.339844 453.238281 L 475.257812 453.238281 L 472.984375 450.59375 L 410.535156 450.59375 L 406.875 445.429688 L 406.003906 446.046875 L 409.980469 451.664062 L 472.492188 451.664062 L 474.769531 454.3125 " fill-opacity="1" fill-rule="nonzero"/></g><path fill="#0cc0df" d="M 515.3125 434.335938 L 510.707031 434.335938 L 496.535156 450.800781 L 484.851562 450.800781 L 482.347656 453.710938 L 498.585938 453.710938 L 515.3125 434.335938 " fill-opacity="1" fill-rule="nonzero"/><path fill="#0cc0df" d="M 528.992188 422.054688 L 511.390625 442.511719 L 515.3125 442.511719 L 532.832031 422.152344 L 528.992188 422.054688 " fill-opacity="1" fill-rule="nonzero"/><path fill="#0cc0df" d="M 436.226562 417.230469 L 495.488281 417.230469 L 502.441406 411.472656 L 502.441406 375.117188 L 496.773438 368.660156 L 436.226562 368.660156 L 436.226562 368.929688 L 496.652344 368.929688 L 502.171875 375.214844 L 502.171875 411.347656 L 495.390625 416.964844 L 436.226562 416.964844 L 436.226562 417.230469 " fill-opacity="1" fill-rule="nonzero"/><path fill="#0cc0df" d="M 435.503906 417.097656 C 435.503906 417.496094 435.824219 417.820312 436.226562 417.820312 C 436.625 417.820312 436.949219 417.496094 436.949219 417.097656 C 436.949219 416.699219 436.625 416.375 436.226562 416.375 C 435.824219 416.375 435.503906 416.699219 435.503906 417.097656 " fill-opacity="1" fill-rule="nonzero"/><path fill="#0cc0df" d="M 435.503906 368.796875 C 435.503906 369.195312 435.824219 369.515625 436.226562 369.515625 C 436.625 369.515625 436.949219 369.195312 436.949219 368.796875 C 436.949219 368.394531 436.625 368.070312 436.226562 368.070312 C 435.824219 368.070312 435.503906 368.394531 435.503906 368.796875 " fill-opacity="1" fill-rule="nonzero"/><path fill="#0cc0df" d="M 502.308594 393.417969 L 537.027344 393.417969 L 537.027344 392.886719 L 502.308594 392.886719 L 502.308594 393.417969 " fill-opacity="1" fill-rule="nonzero"/><g clip-path="url(#9c0c6a0a1f)"><path fill="#0cc0df" d="M 226.019531 390.242188 L 237.132812 377.320312 L 241.449219 377.320312 L 249.75 367.671875 L 257.683594 367.671875 L 287.660156 332.835938 L 310.738281 332.835938 L 313.015625 335.480469 L 381.296875 335.480469 L 385.9375 340.871094 L 392.21875 340.871094 L 392.21875 339.800781 L 386.425781 339.800781 L 381.785156 334.410156 L 313.507812 334.410156 L 311.226562 331.761719 L 287.167969 331.761719 L 257.191406 366.605469 L 249.261719 366.605469 L 240.957031 376.257812 L 236.644531 376.257812 L 225.210938 389.542969 L 226.019531 390.242188 " fill-opacity="1" fill-rule="nonzero"/></g><path fill="#0cc0df" d="M 270.6875 351.738281 L 275.292969 351.738281 L 289.464844 335.269531 L 301.148438 335.269531 L 303.652344 332.359375 L 287.414062 332.359375 L 270.6875 351.738281 " fill-opacity="1" fill-rule="nonzero"/><path fill="#0cc0df" d="M 257.007812 364.023438 L 274.609375 343.5625 L 270.6875 343.5625 L 253.171875 363.917969 L 257.007812 364.023438 " fill-opacity="1" fill-rule="nonzero"/><g clip-path="url(#64ac9ab84c)"><path fill="#0cc0df" d="M 287.167969 454.3125 L 311.226562 454.3125 L 313.507812 451.664062 L 381.980469 451.664062 L 386.371094 446.066406 L 385.53125 445.40625 L 381.460938 450.59375 L 313.015625 450.59375 L 310.738281 453.238281 L 287.660156 453.238281 L 257.683594 418.402344 L 249.75 418.402344 L 241.449219 408.75 L 237.132812 408.75 L 226.019531 395.832031 L 225.210938 396.53125 L 236.644531 409.816406 L 240.957031 409.816406 L 249.261719 419.46875 L 257.191406 419.46875 L 287.167969 454.3125 " fill-opacity="1" fill-rule="nonzero"/></g><path fill="#0cc0df" d="M 270.6875 434.335938 L 275.292969 434.335938 L 289.464844 450.800781 L 301.148438 450.800781 L 303.652344 453.710938 L 287.414062 453.710938 L 270.6875 434.335938 " fill-opacity="1" fill-rule="nonzero"/><path fill="#0cc0df" d="M 257.007812 422.054688 L 274.609375 442.511719 L 270.6875 442.511719 L 253.171875 422.152344 L 257.007812 422.054688 " fill-opacity="1" fill-rule="nonzero"/><path fill="#0cc0df" d="M 290.511719 417.230469 L 348.140625 417.230469 L 348.140625 416.964844 L 290.605469 416.964844 L 283.828125 411.347656 L 283.828125 375.214844 L 289.347656 368.929688 L 348.140625 368.929688 L 348.140625 368.660156 L 289.226562 368.660156 L 283.558594 375.117188 L 283.558594 411.472656 L 290.511719 417.230469 " fill-opacity="1" fill-rule="nonzero"/><path fill="#0cc0df" d="M 348.863281 417.097656 C 348.863281 417.496094 348.542969 417.820312 348.140625 417.820312 C 347.746094 417.820312 347.417969 417.496094 347.417969 417.097656 C 347.417969 416.699219 347.746094 416.375 348.140625 416.375 C 348.542969 416.375 348.863281 416.699219 348.863281 417.097656 " fill-opacity="1" fill-rule="nonzero"/><path fill="#0cc0df" d="M 348.863281 368.796875 C 348.863281 369.195312 348.542969 369.515625 348.140625 369.515625 C 347.746094 369.515625 347.417969 369.195312 347.417969 368.796875 C 347.417969 368.394531 347.746094 368.070312 348.140625 368.070312 C 348.542969 368.070312 348.863281 368.394531 348.863281 368.796875 " fill-opacity="1" fill-rule="nonzero"/><path fill="#0cc0df" d="M 248.96875 393.417969 L 283.691406 393.417969 L 283.691406 392.886719 L 248.96875 392.886719 L 248.96875 393.417969 " fill-opacity="1" fill-rule="nonzero"/><path fill="#0cc0df" d="M 505.785156 340.703125 L 505.785156 337.4375 L 499.574219 329.839844 L 489.3125 329.839844 L 486.882812 332.269531 L 498.585938 332.269531 L 505.785156 340.703125 " fill-opacity="1" fill-rule="nonzero"/><path fill="#0cc0df" d="M 505.785156 445.445312 L 505.785156 448.707031 L 499.574219 456.308594 L 489.3125 456.308594 L 486.882812 453.878906 L 498.585938 453.878906 L 505.785156 445.445312 " fill-opacity="1" fill-rule="nonzero"/><path fill="#0cc0df" d="M 279.726562 340.703125 L 279.726562 337.4375 L 285.9375 329.839844 L 296.203125 329.839844 L 298.628906 332.269531 L 286.925781 332.269531 L 279.726562 340.703125 " fill-opacity="1" fill-rule="nonzero"/><path fill="#0cc0df" d="M 279.726562 445.445312 L 279.726562 448.707031 L 285.9375 456.308594 L 296.203125 456.308594 L 298.628906 453.878906 L 286.925781 453.878906 L 279.726562 445.445312 " fill-opacity="1" fill-rule="nonzero"/><path fill="#0cc0df" d="M 399.546875 348.382812 L 450.992188 348.382812 L 453.230469 346.144531 L 471.582031 346.144531 L 471.582031 345.742188 L 453.066406 345.742188 L 450.828125 347.984375 L 399.546875 347.984375 L 399.546875 348.382812 " fill-opacity="1" fill-rule="nonzero"/><path fill="#0cc0df" d="M 406.15625 347.417969 L 451.878906 347.417969 L 451.878906 347.011719 L 406.15625 347.011719 L 406.15625 347.417969 " fill-opacity="1" fill-rule="nonzero"/><path fill="#0cc0df" d="M 401.871094 343.664062 L 411.421875 343.664062 L 413.214844 341.878906 L 412.929688 341.59375 L 411.257812 343.265625 L 401.871094 343.265625 L 401.871094 343.664062 " fill-opacity="1" fill-rule="nonzero"/><path fill="#0cc0df" d="M 411.863281 342.683594 L 413.351562 341.21875 L 454.136719 341.21875 L 452.488281 342.683594 L 411.863281 342.683594 " fill-opacity="1" fill-rule="nonzero"/><path fill="#0cc0df" d="M 334.558594 348.382812 L 391.980469 348.382812 L 391.980469 347.984375 L 334.722656 347.984375 L 332.484375 345.742188 L 313.964844 345.742188 L 313.964844 346.144531 L 332.316406 346.144531 L 334.558594 348.382812 " fill-opacity="1" fill-rule="nonzero"/><path fill="#0cc0df" d="M 333.671875 347.417969 L 385.371094 347.417969 L 385.371094 347.011719 L 333.671875 347.011719 L 333.671875 347.417969 " fill-opacity="1" fill-rule="nonzero"/><path fill="#0cc0df" d="M 380.105469 343.664062 L 389.65625 343.664062 L 389.65625 343.265625 L 380.269531 343.265625 L 378.601562 341.59375 L 378.3125 341.878906 L 380.105469 343.664062 " fill-opacity="1" fill-rule="nonzero"/><path fill="#0cc0df" d="M 379.664062 342.683594 L 378.179688 341.21875 L 331.410156 341.21875 L 333.0625 342.683594 L 379.664062 342.683594 " fill-opacity="1" fill-rule="nonzero"/><path fill="#0cc0df" d="M 313.964844 439.484375 L 332.484375 439.484375 L 334.722656 437.242188 L 391.980469 437.242188 L 391.980469 436.839844 L 334.558594 436.839844 L 332.316406 439.082031 L 313.964844 439.082031 L 313.964844 439.484375 " fill-opacity="1" fill-rule="nonzero"/><path fill="#0cc0df" d="M 333.671875 438.210938 L 385.371094 438.210938 L 385.371094 437.808594 L 333.671875 437.808594 L 333.671875 438.210938 " fill-opacity="1" fill-rule="nonzero"/><path fill="#0cc0df" d="M 378.601562 443.632812 L 380.269531 441.960938 L 389.65625 441.960938 L 389.65625 441.558594 L 380.105469 441.558594 L 378.3125 443.347656 L 378.601562 443.632812 " fill-opacity="1" fill-rule="nonzero"/><path fill="#0cc0df" d="M 379.664062 442.539062 L 378.179688 444.011719 L 331.410156 444.011719 L 333.0625 442.539062 L 379.664062 442.539062 " fill-opacity="1" fill-rule="nonzero"/><path fill="#0cc0df" d="M 453.066406 439.484375 L 471.582031 439.484375 L 471.582031 439.082031 L 453.230469 439.082031 L 450.992188 436.839844 L 399.546875 436.839844 L 399.546875 437.242188 L 450.828125 437.242188 L 453.066406 439.484375 " fill-opacity="1" fill-rule="nonzero"/><path fill="#0cc0df" d="M 406.15625 438.210938 L 451.878906 438.210938 L 451.878906 437.808594 L 406.15625 437.808594 L 406.15625 438.210938 " fill-opacity="1" fill-rule="nonzero"/><path fill="#0cc0df" d="M 412.929688 443.632812 L 413.214844 443.347656 L 411.421875 441.558594 L 401.871094 441.558594 L 401.871094 441.960938 L 411.257812 441.960938 L 412.929688 443.632812 " fill-opacity="1" fill-rule="nonzero"/><path fill="#0cc0df" d="M 411.863281 442.539062 L 413.351562 444.011719 L 454.136719 444.011719 L 452.488281 442.539062 L 411.863281 442.539062 " fill-opacity="1" fill-rule="nonzero"/><path fill="#0cc0df" d="M 285.972656 393.6875 L 288.375 393.6875 C 288.667969 393.6875 288.910156 393.449219 288.910156 393.152344 C 288.910156 392.859375 288.667969 392.617188 288.375 392.617188 L 285.972656 392.617188 C 285.675781 392.617188 285.441406 392.859375 285.441406 393.152344 C 285.441406 393.449219 285.675781 393.6875 285.972656 393.6875 " fill-opacity="1" fill-rule="nonzero"/><path fill="#0cc0df" d="M 317.449219 393.152344 C 317.449219 392.859375 317.6875 392.617188 317.984375 392.617188 L 318.699219 392.617188 C 318.996094 392.617188 319.234375 392.859375 319.234375 393.152344 C 319.234375 393.449219 318.996094 393.6875 318.699219 393.6875 L 317.984375 393.6875 C 317.6875 393.6875 317.449219 393.449219 317.449219 393.152344 Z M 309.136719 393.152344 C 309.136719 392.859375 309.375 392.617188 309.667969 392.617188 L 313.824219 392.617188 C 314.121094 392.617188 314.363281 392.859375 314.363281 393.152344 C 314.363281 393.449219 314.121094 393.6875 313.824219 393.6875 L 309.667969 393.6875 C 309.375 393.6875 309.136719 393.449219 309.136719 393.152344 Z M 300.820312 393.152344 C 300.820312 392.859375 301.058594 392.617188 301.351562 392.617188 L 305.511719 392.617188 C 305.804688 392.617188 306.046875 392.859375 306.046875 393.152344 C 306.046875 393.449219 305.804688 393.6875 305.511719 393.6875 L 301.351562 393.6875 C 301.058594 393.6875 300.820312 393.449219 300.820312 393.152344 Z M 292.503906 393.152344 C 292.503906 392.859375 292.742188 392.617188 293.039062 392.617188 L 297.199219 392.617188 C 297.492188 392.617188 297.730469 392.859375 297.730469 393.152344 C 297.730469 393.449219 297.492188 393.6875 297.199219 393.6875 L 293.039062 393.6875 C 292.742188 393.6875 292.503906 393.449219 292.503906 393.152344 " fill-opacity="1" fill-rule="nonzero"/><path fill="#0cc0df" d="M 321.035156 393.6875 L 323.433594 393.6875 C 323.730469 393.6875 323.96875 393.449219 323.96875 393.152344 C 323.96875 392.859375 323.730469 392.617188 323.433594 392.617188 L 321.035156 392.617188 C 320.738281 392.617188 320.5 392.859375 320.5 393.152344 C 320.5 393.449219 320.738281 393.6875 321.035156 393.6875 " fill-opacity="1" fill-rule="nonzero"/><path fill="#0cc0df" d="M 462.453125 393.6875 L 464.816406 393.6875 C 465.113281 393.6875 465.351562 393.449219 465.351562 393.152344 C 465.351562 392.859375 465.113281 392.617188 464.816406 392.617188 L 462.453125 392.617188 C 462.15625 392.617188 461.917969 392.859375 461.917969 393.152344 C 461.917969 393.449219 462.15625 393.6875 462.453125 393.6875 " fill-opacity="1" fill-rule="nonzero"/><path fill="#0cc0df" d="M 494.386719 393.152344 C 494.386719 392.859375 494.625 392.617188 494.921875 392.617188 L 495.28125 392.617188 C 495.574219 392.617188 495.816406 392.859375 495.816406 393.152344 C 495.816406 393.449219 495.574219 393.6875 495.28125 393.6875 L 494.921875 393.6875 C 494.625 393.6875 494.386719 393.449219 494.386719 393.152344 Z M 485.917969 393.152344 C 485.917969 392.859375 486.15625 392.617188 486.449219 392.617188 L 490.6875 392.617188 C 490.980469 392.617188 491.21875 392.859375 491.21875 393.152344 C 491.21875 393.449219 490.980469 393.6875 490.6875 393.6875 L 486.449219 393.6875 C 486.15625 393.6875 485.917969 393.449219 485.917969 393.152344 Z M 477.441406 393.152344 C 477.441406 392.859375 477.679688 392.617188 477.976562 392.617188 L 482.214844 392.617188 C 482.507812 392.617188 482.75 392.859375 482.75 393.152344 C 482.75 393.449219 482.507812 393.6875 482.214844 393.6875 L 477.976562 393.6875 C 477.679688 393.6875 477.441406 393.449219 477.441406 393.152344 Z M 468.96875 393.152344 C 468.96875 392.859375 469.210938 392.617188 469.503906 392.617188 L 473.742188 392.617188 C 474.035156 392.617188 474.273438 392.859375 474.273438 393.152344 C 474.273438 393.449219 474.035156 393.6875 473.742188 393.6875 L 469.503906 393.6875 C 469.210938 393.6875 468.96875 393.449219 468.96875 393.152344 " fill-opacity="1" fill-rule="nonzero"/><path fill="#0cc0df" d="M 497.625 393.6875 L 499.992188 393.6875 C 500.285156 393.6875 500.527344 393.449219 500.527344 393.152344 C 500.527344 392.859375 500.285156 392.617188 499.992188 392.617188 L 497.625 392.617188 C 497.328125 392.617188 497.089844 392.859375 497.089844 393.152344 C 497.089844 393.449219 497.328125 393.6875 497.625 393.6875 " fill-opacity="1" fill-rule="nonzero"/><path fill="#0cc0df" d="M 246.921875 393.042969 C 246.921875 393.820312 247.554688 394.453125 248.332031 394.453125 C 249.113281 394.453125 249.742188 393.820312 249.742188 393.042969 C 249.742188 392.265625 249.113281 391.632812 248.332031 391.632812 C 247.554688 391.632812 246.921875 392.265625 246.921875 393.042969 " fill-opacity="1" fill-rule="nonzero"/><path fill="#0cc0df" d="M 535.621094 393.042969 C 535.621094 393.820312 536.253906 394.453125 537.027344 394.453125 C 537.808594 394.453125 538.4375 393.820312 538.4375 393.042969 C 538.4375 392.265625 537.808594 391.632812 537.027344 391.632812 C 536.253906 391.632812 535.621094 392.265625 535.621094 393.042969 " fill-opacity="1" fill-rule="nonzero"/><path fill="#5ce1e6" d="M 491.445312 364.023438 L 464.652344 364.023438 L 464.652344 352.769531 L 491.445312 352.769531 L 464.652344 352.769531 L 464.652344 355.230469 L 491.445312 355.230469 L 491.445312 356.28125 L 464.652344 356.28125 L 464.652344 357.183594 L 491.445312 357.183594 L 491.445312 364.023438 " fill-opacity="1" fill-rule="nonzero"/><path fill="#0cc0df" d="M 464.652344 355.230469 L 491.445312 355.230469 L 491.445312 352.769531 L 464.652344 352.769531 Z M 464.652344 355.230469 " fill-opacity="1" fill-rule="nonzero"/><path fill="#5ce1e6" d="M 299.261719 358.796875 L 318.367188 358.796875 L 318.367188 357.992188 L 299.261719 357.992188 Z M 299.261719 358.796875 " fill-opacity="1" fill-rule="nonzero"/><path fill="#5ce1e6" d="M 295.417969 363.480469 L 322.210938 363.480469 L 322.210938 362.097656 L 295.417969 362.097656 Z M 295.417969 363.480469 " fill-opacity="1" fill-rule="nonzero"/><path fill="#5ce1e6" d="M 307.726562 425.210938 L 322.210938 425.210938 L 322.210938 424.539062 L 307.726562 424.539062 Z M 307.726562 425.210938 " fill-opacity="1" fill-rule="nonzero"/><path fill="#5ce1e6" d="M 295.417969 425.210938 L 303.457031 425.210938 L 303.457031 424.539062 L 295.417969 424.539062 Z M 295.417969 425.210938 " fill-opacity="1" fill-rule="nonzero"/><path fill="#5ce1e6" d="M 295.417969 430.496094 L 315.589844 430.496094 L 315.589844 428.039062 L 295.417969 428.039062 Z M 295.417969 430.496094 " fill-opacity="1" fill-rule="nonzero"/><path fill="#5ce1e6" d="M 319.859375 430.496094 L 322.210938 430.496094 L 322.210938 428.039062 L 319.859375 428.039062 Z M 319.859375 430.496094 " fill-opacity="1" fill-rule="nonzero"/><path fill="#5ce1e6" d="M 488.78125 425.769531 L 491.332031 425.769531 L 491.332031 423.308594 L 488.78125 423.308594 Z M 488.78125 425.769531 " fill-opacity="1" fill-rule="nonzero"/><path fill="#5ce1e6" d="M 476.25 425.769531 L 484.511719 425.769531 L 484.511719 423.308594 L 476.25 423.308594 Z M 476.25 425.769531 " fill-opacity="1" fill-rule="nonzero"/><path fill="#5ce1e6" d="M 464.542969 425.769531 L 471.980469 425.769531 L 471.980469 423.308594 L 464.542969 423.308594 Z M 464.542969 425.769531 " fill-opacity="1" fill-rule="nonzero"/><path fill="#5ce1e6" d="M 470.382812 429.351562 L 491.332031 429.351562 L 491.332031 428.511719 L 470.382812 428.511719 Z M 470.382812 429.351562 " fill-opacity="1" fill-rule="nonzero"/><path fill="#5ce1e6" d="M 464.542969 429.351562 L 466.113281 429.351562 L 466.113281 428.511719 L 464.542969 428.511719 Z M 464.542969 429.351562 " fill-opacity="1" fill-rule="nonzero"/><path fill="#0cc0df" d="M 464.652344 357.183594 L 491.445312 357.183594 L 491.445312 356.28125 L 464.652344 356.28125 Z M 464.652344 357.183594 " fill-opacity="1" fill-rule="nonzero"/><path fill="#0cc0df" d="M 501.40625 383.824219 L 503.207031 383.824219 L 503.207031 374.824219 L 497.117188 367.894531 L 486.429688 367.894531 L 486.429688 369.691406 L 496.304688 369.691406 L 501.40625 375.503906 L 501.40625 383.824219 " fill-opacity="1" fill-rule="nonzero"/><path fill="#0cc0df" d="M 501.40625 402.058594 L 503.207031 402.058594 L 503.207031 411.058594 L 497.117188 417.988281 L 486.429688 417.988281 L 486.429688 416.191406 L 496.304688 416.191406 L 501.40625 410.378906 L 501.40625 402.058594 " fill-opacity="1" fill-rule="nonzero"/><path fill="#0cc0df" d="M 284.558594 383.824219 L 282.757812 383.824219 L 282.757812 374.824219 L 288.84375 367.894531 L 299.535156 367.894531 L 299.535156 369.691406 L 289.660156 369.691406 L 284.558594 375.503906 L 284.558594 383.824219 " fill-opacity="1" fill-rule="nonzero"/><path fill="#0cc0df" d="M 284.558594 402.058594 L 282.757812 402.058594 L 282.757812 411.058594 L 288.84375 417.988281 L 299.535156 417.988281 L 299.535156 416.191406 L 289.660156 416.191406 L 284.558594 410.378906 L 284.558594 402.058594 " fill-opacity="1" fill-rule="nonzero"/><path fill="#0cc0df" d="M 502.308594 390.136719 L 529.964844 390.136719 L 529.964844 383.824219 L 529.699219 383.824219 L 529.699219 389.871094 L 502.308594 389.871094 L 502.308594 390.136719 " fill-opacity="1" fill-rule="nonzero"/><path fill="#0cc0df" d="M 256.03125 390.136719 L 283.691406 390.136719 L 283.691406 389.871094 L 256.300781 389.871094 L 256.300781 383.824219 L 256.03125 383.824219 L 256.03125 390.136719 " fill-opacity="1" fill-rule="nonzero"/><path fill="#0cc0df" d="M 256.03125 402.359375 L 256.300781 402.359375 L 256.300781 396.3125 L 283.691406 396.3125 L 283.691406 396.050781 L 256.03125 396.050781 L 256.03125 402.359375 " fill-opacity="1" fill-rule="nonzero"/><path fill="#0cc0df" d="M 529.699219 402.359375 L 529.964844 402.359375 L 529.964844 396.050781 L 502.308594 396.050781 L 502.308594 396.3125 L 529.699219 396.3125 L 529.699219 402.359375 " fill-opacity="1" fill-rule="nonzero"/><path fill="#0cc0df" d="M 231.570312 383.089844 L 231.761719 382.902344 L 229.167969 380.304688 L 249.804688 356.417969 L 260.640625 356.417969 L 260.640625 356.148438 L 249.683594 356.148438 L 228.800781 380.320312 L 231.570312 383.089844 " fill-opacity="1" fill-rule="nonzero"/><path fill="#0cc0df" d="M 554.785156 383.089844 L 557.558594 380.320312 L 557.472656 380.226562 L 536.675781 356.148438 L 525.714844 356.148438 L 525.714844 356.417969 L 536.554688 356.417969 L 557.191406 380.304688 L 554.597656 382.902344 L 554.785156 383.089844 " fill-opacity="1" fill-rule="nonzero"/><path fill="#0cc0df" d="M 525.714844 429.867188 L 536.675781 429.867188 L 557.558594 405.695312 L 554.785156 402.925781 L 554.597656 403.117188 L 557.191406 405.707031 L 536.554688 429.597656 L 525.714844 429.597656 L 525.714844 429.867188 " fill-opacity="1" fill-rule="nonzero"/><path fill="#0cc0df" d="M 249.683594 429.867188 L 260.640625 429.867188 L 260.640625 429.597656 L 249.804688 429.597656 L 229.167969 405.707031 L 231.761719 403.117188 L 231.570312 402.925781 L 228.800781 405.695312 L 228.882812 405.789062 L 249.683594 429.867188 " fill-opacity="1" fill-rule="nonzero"/><path fill="#0cc0df" d="M 382.226562 330.96875 L 380.484375 329.007812 L 411.5625 329.007812 L 409.820312 330.96875 L 382.226562 330.96875 " fill-opacity="1" fill-rule="nonzero"/><path fill="#0cc0df" d="M 385.332031 334.46875 L 383.417969 332.308594 L 408.632812 332.308594 L 406.714844 334.46875 L 385.332031 334.46875 " fill-opacity="1" fill-rule="nonzero"/><path fill="#0cc0df" d="M 405.523438 335.808594 L 404.082031 337.433594 L 387.96875 337.433594 L 386.523438 335.808594 L 405.523438 335.808594 " fill-opacity="1" fill-rule="nonzero"/><path fill="#0cc0df" d="M 405.15625 450.117188 L 406.296875 451.699219 L 385.953125 451.699219 L 387.089844 450.117188 L 405.15625 450.117188 " fill-opacity="1" fill-rule="nonzero"/><path fill="#0cc0df" d="M 403.121094 447.292969 L 404.378906 449.035156 L 387.871094 449.035156 L 389.125 447.292969 L 403.121094 447.292969 " fill-opacity="1" fill-rule="nonzero"/><path fill="#0cc0df" d="M 389.90625 446.210938 L 390.847656 444.898438 L 401.398438 444.898438 L 402.339844 446.210938 L 389.90625 446.210938 " fill-opacity="1" fill-rule="nonzero"/><path fill="#0cc0df" d="M 265.8125 350.65625 L 266.082031 350.65625 L 266.082031 327.695312 L 272.058594 321.71875 L 320.730469 321.71875 L 333.578125 334.5625 L 333.765625 334.375 L 320.839844 321.453125 L 271.949219 321.453125 L 265.8125 327.585938 L 265.8125 350.65625 " fill-opacity="1" fill-rule="nonzero"/><path fill="#0cc0df" d="M 520.15625 350.65625 L 520.421875 350.65625 L 520.421875 327.585938 L 514.285156 321.453125 L 465.394531 321.453125 L 452.46875 334.375 L 452.660156 334.5625 L 465.507812 321.71875 L 514.175781 321.71875 L 520.15625 327.695312 L 520.15625 350.65625 " fill-opacity="1" fill-rule="nonzero"/><path fill="#0cc0df" d="M 465.394531 464.636719 L 514.285156 464.636719 L 520.421875 458.5 L 520.421875 435.429688 L 520.15625 435.429688 L 520.15625 458.386719 L 514.175781 464.367188 L 465.507812 464.367188 L 452.660156 451.523438 L 452.46875 451.710938 L 465.394531 464.636719 " fill-opacity="1" fill-rule="nonzero"/><path fill="#0cc0df" d="M 271.949219 464.636719 L 320.839844 464.636719 L 333.765625 451.710938 L 333.578125 451.523438 L 320.730469 464.367188 L 272.058594 464.367188 L 266.082031 458.386719 L 266.082031 435.429688 L 265.8125 435.429688 L 265.8125 458.5 L 271.949219 464.636719 " fill-opacity="1" fill-rule="nonzero"/><g clip-path="url(#867dd4567b)"><path fill="#0cc0df" d="M 312.828125 322.796875 L 313.964844 321.535156 L 312.800781 320.367188 L 280.535156 320.367188 L 279.441406 321.546875 L 280.625 322.796875 L 312.828125 322.796875 " fill-opacity="1" fill-rule="nonzero"/></g><g clip-path="url(#685472d11e)"><path fill="#0cc0df" d="M 506.183594 322.796875 L 507.320312 321.535156 L 506.152344 320.367188 L 473.886719 320.367188 L 472.796875 321.546875 L 473.980469 322.796875 L 506.183594 322.796875 " fill-opacity="1" fill-rule="nonzero"/></g><g clip-path="url(#db0c2fd737)"><path fill="#0cc0df" d="M 312.828125 465.636719 L 313.964844 464.375 L 312.800781 463.210938 L 280.535156 463.210938 L 279.441406 464.390625 L 280.625 465.636719 L 312.828125 465.636719 " fill-opacity="1" fill-rule="nonzero"/></g><g clip-path="url(#b3d73a6256)"><path fill="#0cc0df" d="M 506.183594 465.636719 L 507.320312 464.375 L 506.152344 463.210938 L 473.886719 463.210938 L 472.796875 464.390625 L 473.980469 465.636719 L 506.183594 465.636719 " fill-opacity="1" fill-rule="nonzero"/></g><path fill="#0cc0df" d="M 369.1875 393.144531 C 369.1875 407.226562 380.640625 418.6875 394.722656 418.6875 C 408.800781 418.6875 420.257812 407.226562 420.257812 393.144531 C 420.257812 379.070312 408.800781 367.613281 394.722656 367.613281 C 380.640625 367.613281 369.1875 379.070312 369.1875 393.144531 Z M 368.785156 393.144531 C 368.785156 378.847656 380.417969 367.214844 394.722656 367.214844 C 409.023438 367.214844 420.65625 378.847656 420.65625 393.144531 C 420.65625 407.449219 409.023438 419.085938 394.722656 419.085938 C 380.417969 419.085938 368.785156 407.449219 368.785156 393.144531 " fill-opacity="1" fill-rule="nonzero"/><path fill="#5ce1e6" d="M 400.316406 365.988281 C 400.261719 365.980469 400.203125 365.96875 400.148438 365.960938 L 400.597656 363.769531 C 400.652344 363.78125 400.707031 363.792969 400.765625 363.804688 L 400.316406 365.988281 " fill-opacity="1" fill-rule="nonzero"/><path fill="#5ce1e6" d="M 407.757812 368.6875 L 407.605469 368.609375 L 408.652344 366.636719 L 408.804688 366.714844 L 407.757812 368.6875 " fill-opacity="1" fill-rule="nonzero"/><path fill="#5ce1e6" d="M 403.101562 366.71875 C 403.050781 366.703125 402.996094 366.683594 402.9375 366.667969 L 403.609375 364.535156 C 403.664062 364.554688 403.71875 364.570312 403.773438 364.585938 L 403.101562 366.71875 " fill-opacity="1" fill-rule="nonzero"/><path fill="#5ce1e6" d="M 405.601562 367.648438 C 405.550781 367.628906 405.5 367.605469 405.449219 367.585938 L 406.320312 365.527344 C 406.371094 365.550781 406.425781 365.574219 406.476562 365.59375 L 405.601562 367.648438 " fill-opacity="1" fill-rule="nonzero"/><path fill="#5ce1e6" d="M 391.96875 365.5625 L 391.753906 363.335938 C 391.8125 363.332031 391.867188 363.328125 391.925781 363.320312 L 392.136719 365.546875 C 392.082031 365.554688 392.027344 365.554688 391.96875 365.5625 " fill-opacity="1" fill-rule="nonzero"/><path fill="#5ce1e6" d="M 394.804688 365.425781 C 394.636719 365.425781 394.636719 363.191406 394.636719 363.191406 C 394.75 363.191406 394.78125 363.191406 394.804688 363.191406 L 394.804688 365.425781 " fill-opacity="1" fill-rule="nonzero"/><path fill="#5ce1e6" d="M 397.679688 365.582031 C 397.621094 365.578125 397.566406 365.574219 397.507812 365.5625 L 397.742188 363.34375 C 397.800781 363.347656 397.855469 363.355469 397.910156 363.363281 L 397.679688 365.582031 " fill-opacity="1" fill-rule="nonzero"/><path fill="#5ce1e6" d="M 389.125 365.988281 L 388.679688 363.804688 C 388.734375 363.792969 388.792969 363.78125 388.847656 363.769531 L 389.292969 365.960938 C 389.238281 365.96875 389.179688 365.980469 389.125 365.988281 " fill-opacity="1" fill-rule="nonzero"/><path fill="#5ce1e6" d="M 420.386719 382.789062 C 420.367188 382.734375 420.34375 382.683594 420.320312 382.632812 L 422.394531 381.792969 C 422.414062 381.847656 422.4375 381.902344 422.457031 381.953125 L 420.386719 382.789062 " fill-opacity="1" fill-rule="nonzero"/><path fill="#5ce1e6" d="M 410.046875 370.058594 L 409.90625 369.96875 L 411.136719 368.105469 L 411.28125 368.199219 L 410.046875 370.058594 " fill-opacity="1" fill-rule="nonzero"/><path fill="#5ce1e6" d="M 421.175781 385.046875 C 421.160156 384.992188 421.144531 384.9375 421.128906 384.882812 L 423.265625 384.226562 C 423.28125 384.28125 423.296875 384.335938 423.3125 384.390625 L 421.175781 385.046875 " fill-opacity="1" fill-rule="nonzero"/><path fill="#5ce1e6" d="M 419.273438 380.363281 C 419.246094 380.3125 419.222656 380.261719 419.195312 380.210938 L 421.175781 379.179688 L 421.253906 379.328125 L 419.273438 380.363281 " fill-opacity="1" fill-rule="nonzero"/><path fill="#5ce1e6" d="M 412.355469 371.78125 L 412.222656 371.671875 L 413.640625 369.949219 L 413.773438 370.054688 L 412.355469 371.78125 " fill-opacity="1" fill-rule="nonzero"/><path fill="#5ce1e6" d="M 417.816406 377.882812 L 417.722656 377.738281 L 419.585938 376.503906 L 419.679688 376.648438 L 417.816406 377.882812 " fill-opacity="1" fill-rule="nonzero"/><path fill="#5ce1e6" d="M 421.824219 387.632812 C 421.8125 387.578125 421.804688 387.523438 421.792969 387.46875 L 423.980469 387.023438 C 423.996094 387.078125 424.003906 387.132812 424.015625 387.191406 L 421.824219 387.632812 " fill-opacity="1" fill-rule="nonzero"/><path fill="#5ce1e6" d="M 416.242188 375.726562 L 416.136719 375.59375 L 417.871094 374.183594 L 417.976562 374.316406 L 416.242188 375.726562 " fill-opacity="1" fill-rule="nonzero"/><path fill="#5ce1e6" d="M 368.324219 384.847656 L 366.195312 384.179688 C 366.210938 384.121094 366.230469 384.066406 366.246094 384.015625 L 368.378906 384.683594 C 368.359375 384.738281 368.339844 384.792969 368.324219 384.847656 " fill-opacity="1" fill-rule="nonzero"/><path fill="#5ce1e6" d="M 367.222656 390.273438 L 365 390.042969 C 365.003906 389.988281 365.011719 389.929688 365.015625 389.875 L 367.242188 390.105469 C 367.234375 390.164062 367.226562 390.21875 367.222656 390.273438 " fill-opacity="1" fill-rule="nonzero"/><path fill="#5ce1e6" d="M 369.242188 382.339844 L 367.1875 381.464844 C 367.207031 381.410156 367.230469 381.363281 367.253906 381.308594 L 369.308594 382.179688 C 369.285156 382.234375 369.261719 382.285156 369.242188 382.339844 " fill-opacity="1" fill-rule="nonzero"/><path fill="#5ce1e6" d="M 415.78125 414.246094 L 414.203125 412.664062 L 414.324219 412.550781 L 415.90625 414.128906 L 415.78125 414.246094 " fill-opacity="1" fill-rule="nonzero"/><path fill="#5ce1e6" d="M 364.847656 393.148438 C 364.847656 392.980469 367.082031 392.980469 367.082031 392.980469 L 367.082031 393.066406 C 367.082031 393.148438 364.847656 393.148438 364.847656 393.148438 " fill-opacity="1" fill-rule="nonzero"/><path fill="#5ce1e6" d="M 373.660156 414.246094 L 373.539062 414.128906 L 375.121094 412.550781 L 375.238281 412.664062 L 373.660156 414.246094 " fill-opacity="1" fill-rule="nonzero"/><path fill="#5ce1e6" d="M 375.121094 373.582031 L 373.539062 372.003906 L 373.660156 371.878906 L 375.238281 373.460938 L 375.121094 373.582031 " fill-opacity="1" fill-rule="nonzero"/><path fill="#5ce1e6" d="M 414.324219 373.582031 L 414.203125 373.460938 L 415.785156 371.878906 L 415.90625 372.003906 L 414.324219 373.582031 " fill-opacity="1" fill-rule="nonzero"/><path fill="#5ce1e6" d="M 422.359375 393.148438 L 422.359375 393.066406 C 422.359375 392.980469 424.59375 392.980469 424.59375 392.980469 C 424.59375 393.148438 422.359375 393.148438 422.359375 393.148438 " fill-opacity="1" fill-rule="nonzero"/><path fill="#5ce1e6" d="M 370.265625 380.175781 L 368.292969 379.132812 L 368.371094 378.984375 L 370.34375 380.027344 L 370.265625 380.175781 " fill-opacity="1" fill-rule="nonzero"/><path fill="#5ce1e6" d="M 379.398438 370.058594 L 378.164062 368.199219 L 378.308594 368.105469 L 379.539062 369.96875 L 379.398438 370.058594 " fill-opacity="1" fill-rule="nonzero"/><path fill="#5ce1e6" d="M 386.539062 366.660156 L 385.882812 364.523438 C 385.9375 364.503906 385.996094 364.492188 386.046875 364.472656 L 386.703125 366.609375 C 386.648438 366.625 386.59375 366.640625 386.539062 366.660156 " fill-opacity="1" fill-rule="nonzero"/><path fill="#5ce1e6" d="M 384.289062 367.460938 L 383.453125 365.390625 C 383.507812 365.371094 383.558594 365.351562 383.609375 365.328125 L 384.445312 367.398438 C 384.394531 367.421875 384.34375 367.441406 384.289062 367.460938 " fill-opacity="1" fill-rule="nonzero"/><path fill="#5ce1e6" d="M 381.867188 368.59375 L 380.835938 366.609375 C 380.886719 366.585938 380.9375 366.554688 380.988281 366.53125 L 382.019531 368.511719 L 381.867188 368.59375 " fill-opacity="1" fill-rule="nonzero"/><path fill="#5ce1e6" d="M 373.328125 375.5625 L 371.605469 374.144531 L 371.710938 374.011719 L 373.4375 375.429688 L 373.328125 375.5625 " fill-opacity="1" fill-rule="nonzero"/><path fill="#5ce1e6" d="M 371.625 377.878906 L 369.761719 376.648438 L 369.855469 376.503906 L 371.71875 377.738281 L 371.625 377.878906 " fill-opacity="1" fill-rule="nonzero"/><path fill="#5ce1e6" d="M 377.25 371.648438 L 375.84375 369.914062 L 375.976562 369.804688 L 377.382812 371.542969 L 377.25 371.648438 " fill-opacity="1" fill-rule="nonzero"/><path fill="#5ce1e6" d="M 367.617188 387.632812 L 365.429688 387.191406 C 365.4375 387.132812 365.449219 387.078125 365.460938 387.023438 L 367.648438 387.46875 C 367.640625 387.523438 367.628906 387.578125 367.617188 387.632812 " fill-opacity="1" fill-rule="nonzero"/><path fill="#5ce1e6" d="M 380.789062 419.492188 L 380.636719 419.410156 L 381.6875 417.441406 C 381.738281 417.46875 381.785156 417.492188 381.835938 417.523438 L 380.789062 419.492188 " fill-opacity="1" fill-rule="nonzero"/><path fill="#5ce1e6" d="M 375.800781 416.179688 L 375.667969 416.074219 L 377.089844 414.347656 L 377.222656 414.457031 L 375.800781 416.179688 " fill-opacity="1" fill-rule="nonzero"/><path fill="#5ce1e6" d="M 378.308594 418.023438 L 378.164062 417.929688 L 379.394531 416.066406 L 379.539062 416.160156 L 378.308594 418.023438 " fill-opacity="1" fill-rule="nonzero"/><path fill="#5ce1e6" d="M 383.121094 420.601562 C 383.070312 420.574219 383.015625 420.554688 382.964844 420.535156 L 383.839844 418.476562 C 383.890625 418.5 383.945312 418.519531 383.992188 418.546875 L 383.121094 420.601562 " fill-opacity="1" fill-rule="nonzero"/><path fill="#5ce1e6" d="M 391.703125 422.78125 C 391.644531 422.78125 391.589844 422.773438 391.53125 422.765625 L 391.765625 420.546875 C 391.820312 420.550781 391.875 420.558594 391.933594 420.5625 L 391.703125 422.78125 " fill-opacity="1" fill-rule="nonzero"/><path fill="#5ce1e6" d="M 385.832031 421.589844 C 385.777344 421.578125 385.726562 421.554688 385.667969 421.542969 L 386.34375 419.410156 C 386.394531 419.425781 386.449219 419.445312 386.503906 419.460938 L 385.832031 421.589844 " fill-opacity="1" fill-rule="nonzero"/><path fill="#5ce1e6" d="M 388.847656 422.359375 C 388.792969 422.34375 388.734375 422.335938 388.679688 422.324219 L 389.125 420.136719 C 389.179688 420.148438 389.238281 420.15625 389.292969 420.167969 L 388.847656 422.359375 " fill-opacity="1" fill-rule="nonzero"/><path fill="#5ce1e6" d="M 394.71875 422.933594 C 394.671875 422.933594 394.65625 422.933594 394.636719 422.933594 L 394.636719 420.703125 C 394.804688 420.703125 394.804688 422.933594 394.804688 422.933594 C 394.769531 422.933594 394.742188 422.933594 394.71875 422.933594 " fill-opacity="1" fill-rule="nonzero"/><path fill="#5ce1e6" d="M 365.460938 399.105469 C 365.449219 399.050781 365.4375 398.996094 365.429688 398.9375 L 367.617188 398.492188 C 367.628906 398.550781 367.640625 398.605469 367.648438 398.660156 L 365.460938 399.105469 " fill-opacity="1" fill-rule="nonzero"/><path fill="#5ce1e6" d="M 366.179688 401.902344 C 366.160156 401.847656 366.148438 401.792969 366.132812 401.738281 L 368.265625 401.082031 C 368.285156 401.136719 368.296875 401.191406 368.3125 401.246094 L 366.179688 401.902344 " fill-opacity="1" fill-rule="nonzero"/><path fill="#5ce1e6" d="M 364.996094 396.03125 C 364.988281 395.976562 364.984375 395.917969 364.980469 395.863281 L 367.203125 395.644531 C 367.207031 395.703125 367.210938 395.757812 367.21875 395.816406 L 364.996094 396.03125 " fill-opacity="1" fill-rule="nonzero"/><path fill="#5ce1e6" d="M 371.570312 411.941406 L 371.464844 411.8125 L 373.199219 410.402344 L 373.304688 410.535156 L 371.570312 411.941406 " fill-opacity="1" fill-rule="nonzero"/><path fill="#5ce1e6" d="M 369.855469 409.621094 L 369.761719 409.480469 L 371.625 408.246094 L 371.71875 408.390625 L 369.855469 409.621094 " fill-opacity="1" fill-rule="nonzero"/><path fill="#5ce1e6" d="M 368.269531 406.949219 L 368.1875 406.796875 L 370.167969 405.765625 L 370.246094 405.917969 L 368.269531 406.949219 " fill-opacity="1" fill-rule="nonzero"/><path fill="#5ce1e6" d="M 367.050781 404.332031 C 367.027344 404.28125 367.003906 404.230469 366.984375 404.175781 L 369.058594 403.339844 C 369.078125 403.390625 369.101562 403.445312 369.121094 403.492188 L 367.050781 404.332031 " fill-opacity="1" fill-rule="nonzero"/><path fill="#5ce1e6" d="M 422.191406 404.820312 L 420.132812 403.945312 L 420.203125 403.792969 L 422.257812 404.664062 C 422.234375 404.714844 422.210938 404.765625 422.191406 404.820312 " fill-opacity="1" fill-rule="nonzero"/><path fill="#5ce1e6" d="M 423.195312 402.113281 L 421.066406 401.445312 C 421.085938 401.390625 421.101562 401.335938 421.117188 401.28125 L 423.25 401.953125 C 423.234375 402.007812 423.210938 402.0625 423.195312 402.113281 " fill-opacity="1" fill-rule="nonzero"/><path fill="#5ce1e6" d="M 419.585938 409.621094 L 417.722656 408.390625 L 417.816406 408.25 L 419.679688 409.480469 L 419.585938 409.621094 " fill-opacity="1" fill-rule="nonzero"/><path fill="#5ce1e6" d="M 421.070312 407.144531 L 419.097656 406.101562 L 419.175781 405.949219 L 421.148438 407 L 421.070312 407.144531 " fill-opacity="1" fill-rule="nonzero"/><path fill="#5ce1e6" d="M 422.238281 390.484375 C 422.234375 390.425781 422.230469 390.367188 422.226562 390.3125 L 424.449219 390.09375 C 424.453125 390.152344 424.457031 390.210938 424.460938 390.265625 L 422.238281 390.484375 " fill-opacity="1" fill-rule="nonzero"/><path fill="#5ce1e6" d="M 423.980469 399.105469 L 421.792969 398.660156 C 421.804688 398.605469 421.8125 398.550781 421.824219 398.492188 L 424.015625 398.9375 C 424.003906 398.996094 423.996094 399.050781 423.980469 399.105469 " fill-opacity="1" fill-rule="nonzero"/><path fill="#5ce1e6" d="M 397.519531 422.804688 L 397.304688 420.582031 C 397.359375 420.574219 397.414062 420.574219 397.472656 420.566406 L 397.6875 422.792969 C 397.632812 422.796875 397.578125 422.800781 397.519531 422.804688 " fill-opacity="1" fill-rule="nonzero"/><path fill="#5ce1e6" d="M 424.425781 396.253906 L 422.203125 396.019531 C 422.210938 395.964844 422.214844 395.910156 422.21875 395.851562 L 424.445312 396.085938 C 424.4375 396.140625 424.429688 396.195312 424.425781 396.253906 " fill-opacity="1" fill-rule="nonzero"/><path fill="#5ce1e6" d="M 405.832031 420.796875 L 404.996094 418.726562 C 405.046875 418.707031 405.101562 418.6875 405.152344 418.664062 L 405.988281 420.738281 C 405.9375 420.753906 405.886719 420.777344 405.832031 420.796875 " fill-opacity="1" fill-rule="nonzero"/><path fill="#5ce1e6" d="M 403.398438 421.65625 L 402.738281 419.519531 C 402.796875 419.5 402.847656 419.488281 402.90625 419.46875 L 403.558594 421.609375 C 403.503906 421.621094 403.449219 421.640625 403.398438 421.65625 " fill-opacity="1" fill-rule="nonzero"/><path fill="#5ce1e6" d="M 400.597656 422.359375 L 400.148438 420.167969 C 400.203125 420.15625 400.257812 420.148438 400.316406 420.136719 L 400.761719 422.324219 C 400.707031 422.335938 400.652344 422.34375 400.597656 422.359375 " fill-opacity="1" fill-rule="nonzero"/><path fill="#5ce1e6" d="M 411.136719 418.023438 L 409.902344 416.160156 L 410.046875 416.066406 L 411.277344 417.929688 L 411.136719 418.023438 " fill-opacity="1" fill-rule="nonzero"/><path fill="#5ce1e6" d="M 413.464844 416.320312 L 412.058594 414.585938 L 412.191406 414.480469 L 413.601562 416.214844 L 413.464844 416.320312 " fill-opacity="1" fill-rule="nonzero"/><path fill="#5ce1e6" d="M 408.457031 419.597656 L 407.421875 417.617188 C 407.476562 417.589844 407.527344 417.5625 407.574219 417.539062 L 408.605469 419.515625 L 408.457031 419.597656 " fill-opacity="1" fill-rule="nonzero"/><path fill="#5ce1e6" d="M 417.730469 412.113281 L 416.003906 410.695312 L 416.113281 410.5625 L 417.835938 411.984375 L 417.730469 412.113281 " fill-opacity="1" fill-rule="nonzero"/><path fill="#0cc0df" d="M 362.179688 393.148438 C 362.179688 411.09375 376.777344 425.691406 394.722656 425.691406 C 412.664062 425.691406 427.261719 411.09375 427.261719 393.148438 C 427.261719 375.207031 412.664062 360.605469 394.722656 360.605469 C 376.777344 360.605469 362.179688 375.207031 362.179688 393.148438 M 361.109375 393.148438 C 361.109375 374.613281 376.1875 359.539062 394.722656 359.539062 C 413.257812 359.539062 428.332031 374.613281 428.332031 393.148438 C 428.332031 411.683594 413.257812 426.761719 394.722656 426.761719 C 376.1875 426.761719 361.109375 411.683594 361.109375 393.148438 " fill-opacity="1" fill-rule="nonzero"/><path fill="#5ce1e6" d="M 457.429688 393.140625 L 428.332031 393.140625 C 428.332031 393.078125 428.332031 393.011719 428.332031 392.949219 L 457.429688 392.949219 L 457.429688 393.140625 " fill-opacity="1" fill-rule="nonzero"/><path fill="#0cc0df" d="M 428.332031 393.140625 L 427.65625 393.140625 C 427.65625 393.078125 427.660156 393.011719 427.660156 392.949219 L 428.332031 392.949219 C 428.332031 393.011719 428.332031 393.078125 428.332031 393.140625 " fill-opacity="1" fill-rule="nonzero"/><path fill="#5ce1e6" d="M 394.574219 359.539062 L 394.574219 350.257812 L 394.765625 350.257812 L 394.765625 359.539062 C 394.75 359.539062 394.734375 359.539062 394.722656 359.539062 C 394.671875 359.539062 394.621094 359.539062 394.574219 359.539062 " fill-opacity="1" fill-rule="nonzero"/><path fill="#0cc0df" d="M 394.765625 359.851562 C 394.703125 359.847656 394.636719 359.847656 394.574219 359.847656 L 394.574219 359.539062 C 394.621094 359.539062 394.671875 359.539062 394.722656 359.539062 C 394.734375 359.539062 394.75 359.539062 394.765625 359.539062 L 394.765625 359.851562 " fill-opacity="1" fill-rule="nonzero"/><path fill="#5ce1e6" d="M 361.109375 393.140625 L 327.886719 393.140625 C 327.890625 393.113281 327.890625 393.082031 327.890625 393.050781 C 327.890625 393.015625 327.890625 392.980469 327.886719 392.949219 L 361.109375 392.949219 C 361.109375 393.011719 361.109375 393.078125 361.109375 393.140625 " fill-opacity="1" fill-rule="nonzero"/><path fill="#0cc0df" d="M 327.886719 393.140625 L 327.117188 393.140625 L 327.117188 392.949219 L 327.886719 392.949219 C 327.890625 392.980469 327.890625 393.015625 327.890625 393.050781 C 327.890625 393.082031 327.890625 393.113281 327.886719 393.140625 " fill-opacity="1" fill-rule="nonzero"/><path fill="#0cc0df" d="M 361.488281 393.140625 L 361.109375 393.140625 C 361.109375 393.078125 361.109375 393.011719 361.109375 392.949219 L 361.488281 392.949219 C 361.488281 393.011719 361.488281 393.078125 361.488281 393.140625 " fill-opacity="1" fill-rule="nonzero"/><path fill="#5ce1e6" d="M 394.765625 435.828125 L 394.574219 435.828125 L 394.574219 426.761719 C 394.621094 426.761719 394.671875 426.761719 394.722656 426.761719 C 394.734375 426.761719 394.75 426.761719 394.765625 426.761719 L 394.765625 435.828125 " fill-opacity="1" fill-rule="nonzero"/><path fill="#0cc0df" d="M 394.722656 426.761719 C 394.671875 426.761719 394.621094 426.761719 394.574219 426.761719 L 394.574219 426.019531 C 394.636719 426.019531 394.703125 426.019531 394.765625 426.019531 L 394.765625 426.761719 C 394.75 426.761719 394.734375 426.761719 394.722656 426.761719 " fill-opacity="1" fill-rule="nonzero"/><path fill="#0cc0df" d="M 416.78125 370.257812 C 416.78125 370.257812 414.265625 367.71875 410.066406 365.09375 L 410.066406 360.636719 C 410.066406 360.636719 406.179688 358.628906 401.488281 357.738281 L 401.488281 358.230469 C 401.488281 358.230469 405.285156 358.941406 409.484375 360.902344 L 409.441406 365.492188 C 409.441406 365.492188 412.859375 367.351562 416.410156 370.660156 L 416.78125 370.257812 " fill-opacity="1" fill-rule="nonzero"/><path fill="#0cc0df" d="M 372.5625 370.257812 C 372.5625 370.257812 374.949219 367.71875 379.273438 365.09375 L 379.273438 360.636719 C 379.273438 360.636719 383.164062 358.628906 387.855469 357.738281 L 387.855469 358.230469 C 387.855469 358.230469 384.058594 358.941406 379.859375 360.902344 L 379.898438 365.492188 C 379.898438 365.492188 376.421875 367.5625 372.929688 370.660156 L 372.5625 370.257812 " fill-opacity="1" fill-rule="nonzero"/><path fill="#0cc0df" d="M 372.5625 415.652344 C 372.5625 415.652344 374.949219 418.113281 379.273438 420.824219 L 379.273438 425.28125 C 379.273438 425.28125 383.164062 427.28125 387.855469 428.175781 L 387.855469 427.683594 C 387.855469 427.683594 384.058594 426.972656 379.859375 425.011719 L 379.898438 420.421875 C 379.898438 420.421875 376.421875 418.351562 372.929688 415.25 L 372.5625 415.652344 " fill-opacity="1" fill-rule="nonzero"/><path fill="#0cc0df" d="M 416.78125 415.652344 C 416.78125 415.652344 414.417969 418.09375 410.066406 420.824219 L 410.066406 425.28125 C 410.066406 425.28125 406.179688 427.28125 401.488281 428.175781 L 401.488281 427.683594 C 401.488281 427.683594 405.285156 426.972656 409.484375 425.011719 L 409.441406 420.421875 C 409.441406 420.421875 412.917969 418.351562 416.410156 415.25 L 416.78125 415.652344 " fill-opacity="1" fill-rule="nonzero"/><path fill="#0cc0df" d="M 387.816406 359.457031 L 388.414062 359.347656 L 387.894531 356.5 L 387.300781 356.609375 L 387.816406 359.457031 " fill-opacity="1" fill-rule="nonzero"/><path fill="#0cc0df" d="M 401.523438 359.457031 L 400.929688 359.347656 L 401.449219 356.5 L 402.039062 356.609375 L 401.523438 359.457031 " fill-opacity="1" fill-rule="nonzero"/><path fill="#0cc0df" d="M 401.523438 426.574219 L 400.929688 426.683594 L 401.449219 429.53125 L 402.039062 429.421875 L 401.523438 426.574219 " fill-opacity="1" fill-rule="nonzero"/><path fill="#0cc0df" d="M 387.816406 426.574219 L 388.414062 426.683594 L 387.894531 429.53125 L 387.300781 429.421875 L 387.816406 426.574219 " fill-opacity="1" fill-rule="nonzero"/><path fill="#0cc0df" d="M 380.578125 393.207031 L 380.578125 393.3125 L 376.925781 393.3125 C 376.925781 393.246094 376.933594 393.179688 376.933594 393.117188 L 380.59375 393.117188 L 380.578125 393.207031 " fill-opacity="1" fill-rule="nonzero"/><path fill="#0cc0df" d="M 408.933594 393.207031 C 408.933594 393.117188 412.546875 393.117188 412.546875 393.117188 L 412.546875 393.3125 L 408.917969 393.3125 L 408.933594 393.207031 " fill-opacity="1" fill-rule="nonzero"/><path fill="#0cc0df" d="M 394.722656 379.085938 C 394.636719 379.089844 394.636719 375.402344 394.636719 375.402344 L 394.832031 375.402344 L 394.832031 379.085938 L 394.722656 379.085938 " fill-opacity="1" fill-rule="nonzero"/><path fill="#0cc0df" d="M 394.699219 407.324219 L 394.8125 407.324219 L 394.832031 411.023438 C 394.765625 411.023438 394.703125 411.015625 394.636719 411.015625 L 394.636719 407.324219 L 394.699219 407.324219 " fill-opacity="1" fill-rule="nonzero"/><path fill="#0cc0df" d="M 403.109375 381.847656 C 400.777344 380.128906 397.894531 379.101562 394.765625 379.101562 C 391.742188 379.101562 388.941406 380.0625 386.644531 381.6875 C 386.59375 381.640625 386.542969 381.589844 386.492188 381.535156 C 388.828125 379.871094 391.679688 378.886719 394.765625 378.886719 C 397.953125 378.886719 400.886719 379.933594 403.265625 381.699219 C 403.214844 381.75 403.164062 381.796875 403.109375 381.847656 " fill-opacity="1" fill-rule="nonzero"/><path fill="#0cc0df" d="M 406.199219 384.976562 C 406.25 384.921875 406.300781 384.871094 406.351562 384.824219 C 408.050781 387.171875 409.058594 390.058594 409.058594 393.179688 C 409.058594 396.261719 408.070312 399.113281 406.410156 401.449219 C 406.359375 401.398438 406.308594 401.347656 406.257812 401.296875 C 407.878906 399 408.839844 396.203125 408.839844 393.179688 C 408.839844 390.117188 407.859375 387.285156 406.199219 384.976562 " fill-opacity="1" fill-rule="nonzero"/><path fill="#0cc0df" d="M 383.425781 401.503906 C 383.375 401.554688 383.324219 401.609375 383.273438 401.660156 C 381.519531 399.289062 380.476562 396.351562 380.476562 393.179688 C 380.476562 390.148438 381.425781 387.34375 383.035156 385.03125 C 383.085938 385.082031 383.136719 385.132812 383.191406 385.183594 C 381.617188 387.453125 380.691406 390.207031 380.691406 393.179688 C 380.691406 396.296875 381.707031 399.175781 383.425781 401.503906 " fill-opacity="1" fill-rule="nonzero"/><path fill="#0cc0df" d="M 386.578125 404.621094 C 388.882812 406.273438 391.710938 407.253906 394.765625 407.253906 C 397.738281 407.253906 400.488281 406.328125 402.757812 404.757812 L 402.914062 404.910156 C 400.601562 406.519531 397.792969 407.46875 394.765625 407.46875 C 391.652344 407.46875 388.769531 406.464844 386.421875 404.773438 C 386.472656 404.71875 386.523438 404.671875 386.578125 404.621094 " fill-opacity="1" fill-rule="nonzero"/><path fill="#0cc0df" d="M 393.820312 393.210938 C 393.820312 393.71875 394.230469 394.128906 394.734375 394.128906 C 395.238281 394.128906 395.648438 393.71875 395.648438 393.210938 C 395.648438 392.707031 395.238281 392.296875 394.734375 392.296875 C 394.230469 392.296875 393.820312 392.707031 393.820312 393.210938 " fill-opacity="1" fill-rule="nonzero"/><path fill="#0cc0df" d="M 249.742188 358.796875 L 245.539062 358.796875 L 228.984375 377.878906 L 233.097656 377.878906 L 249.742188 358.796875 " fill-opacity="1" fill-rule="nonzero"/><path fill="#0cc0df" d="M 537.152344 358.796875 L 541.363281 358.796875 L 557.914062 377.878906 L 553.800781 377.878906 L 537.152344 358.796875 " fill-opacity="1" fill-rule="nonzero"/><path fill="#0cc0df" d="M 537.152344 427.363281 L 541.363281 427.363281 L 557.914062 408.277344 L 553.800781 408.277344 L 537.152344 427.363281 " fill-opacity="1" fill-rule="nonzero"/><path fill="#0cc0df" d="M 249.742188 427.363281 L 245.539062 427.363281 L 228.984375 408.277344 L 233.097656 408.277344 L 249.742188 427.363281 " fill-opacity="1" fill-rule="nonzero"/><path fill="#0cc0df" d="M 346.976562 396.707031 L 343.3125 393.042969 L 346.976562 389.378906 Z M 340.761719 393.042969 L 347.78125 400.0625 L 347.78125 386.027344 L 340.761719 393.042969 " fill-opacity="1" fill-rule="nonzero"/><path fill="#0cc0df" d="M 442.347656 389.378906 L 446.007812 393.042969 L 442.347656 396.707031 Z M 448.558594 393.042969 L 441.542969 386.027344 L 441.542969 400.0625 L 448.558594 393.042969 " fill-opacity="1" fill-rule="nonzero"/><g fill="#000000" fill-opacity="1"><g transform="translate(392.721195, 426.096756)"><g><path d="M 0.421875 0 L 0.40625 -0.078125 L 0.390625 -0.078125 C 0.367188 -0.046875 0.34375 -0.0195312 0.3125 0 C 0.289062 0.0078125 0.257812 0.015625 0.21875 0.015625 C 0.164062 0.015625 0.125 0 0.09375 -0.03125 C 0.0625 -0.0625 0.046875 -0.0976562 0.046875 -0.140625 C 0.046875 -0.253906 0.132812 -0.3125 0.3125 -0.3125 L 0.390625 -0.328125 L 0.390625 -0.359375 C 0.390625 -0.398438 0.378906 -0.429688 0.359375 -0.453125 C 0.347656 -0.472656 0.320312 -0.484375 0.28125 -0.484375 C 0.238281 -0.484375 0.1875 -0.46875 0.125 -0.4375 L 0.109375 -0.5 C 0.128906 -0.507812 0.15625 -0.519531 0.1875 -0.53125 C 0.21875 -0.539062 0.25 -0.546875 0.28125 -0.546875 C 0.351562 -0.546875 0.398438 -0.53125 0.421875 -0.5 C 0.453125 -0.46875 0.46875 -0.421875 0.46875 -0.359375 L 0.46875 0 Z M 0.234375 -0.0625 C 0.285156 -0.0625 0.320312 -0.0703125 0.34375 -0.09375 C 0.375 -0.125 0.390625 -0.164062 0.390625 -0.21875 L 0.390625 -0.265625 L 0.3125 -0.265625 C 0.25 -0.253906 0.203125 -0.238281 0.171875 -0.21875 C 0.140625 -0.207031 0.125 -0.179688 0.125 -0.140625 C 0.125 -0.117188 0.132812 -0.0976562 0.15625 -0.078125 C 0.175781 -0.0664062 0.203125 -0.0625 0.234375 -0.0625 Z M 0.234375 -0.0625 "/></g></g></g><g fill="#000000" fill-opacity="1"><g transform="translate(435.231317, 419.39812)"><g><path d="M 1.484375 0 L 1.4375 -0.28125 L 1.421875 -0.28125 C 1.328125 -0.15625 1.226562 -0.0703125 1.125 -0.03125 C 1.03125 0.0078125 0.914062 0.03125 0.78125 0.03125 C 0.582031 0.03125 0.429688 -0.015625 0.328125 -0.109375 C 0.222656 -0.210938 0.171875 -0.351562 0.171875 -0.53125 C 0.171875 -0.914062 0.476562 -1.117188 1.09375 -1.140625 L 1.421875 -1.15625 L 1.421875 -1.265625 C 1.421875 -1.421875 1.390625 -1.535156 1.328125 -1.609375 C 1.265625 -1.679688 1.160156 -1.71875 1.015625 -1.71875 C 0.859375 -1.71875 0.675781 -1.664062 0.46875 -1.5625 L 0.375 -1.796875 C 0.46875 -1.835938 0.570312 -1.875 0.6875 -1.90625 C 0.800781 -1.9375 0.914062 -1.953125 1.03125 -1.953125 C 1.257812 -1.953125 1.425781 -1.898438 1.53125 -1.796875 C 1.644531 -1.703125 1.703125 -1.539062 1.703125 -1.3125 L 1.703125 0 Z M 0.828125 -0.203125 C 1.015625 -0.203125 1.160156 -0.25 1.265625 -0.34375 C 1.367188 -0.445312 1.421875 -0.585938 1.421875 -0.765625 L 1.421875 -0.953125 L 1.125 -0.9375 C 0.894531 -0.925781 0.726562 -0.890625 0.625 -0.828125 C 0.519531 -0.765625 0.46875 -0.664062 0.46875 -0.53125 C 0.46875 -0.425781 0.5 -0.34375 0.5625 -0.28125 C 0.625 -0.226562 0.710938 -0.203125 0.828125 -0.203125 Z M 0.828125 -0.203125 "/></g></g></g></svg>